/* XPM */
static char * focused_xpm[] = {
"1 21 3 1",
" 	c None",
".	c #2A373E",
"+	c #00BCD4",
".",
".",
".",
".",
".",
".",
".",
".",
".",
".",
".",
".",
".",
".",
".",
".",
".",
".",
"+",
"+",
"+"};
